<svg width="400" height="400" viewBox="0 0 400 400" fill="none" xmlns="http://www.w3.org/2000/svg">
<path d="M310 19.34C301.42 19 294 27.34 295.24 35.48C295.826 38.3169 297.277 40.9022 299.394 42.8796C301.511 44.8569 304.19 46.1288 307.06 46.52C315.06 47.56 323.78 40.88 323.48 32.52C323.23 29.0559 321.721 25.803 319.238 23.375C316.755 20.947 313.469 19.5117 310 19.34ZM315.36 40.56L309.36 36.56L301.54 41.44L304.2 34.06L299.84 31.24L305.68 30.28L309.36 24.38L311.58 29.04L318.38 28.74L313.36 33.6L315.36 40.56ZM226.26 125.74C227.6 125.4 229.24 124.2 229.06 122.68C228.88 121.16 227.24 120.38 225.92 120.32C223.8 120.32 221.68 122.32 222.04 123.9C222.4 125.48 224.52 126.16 226.26 125.74ZM167.3 345C169.269 343.361 171.023 341.479 172.52 339.4C175.1 335.78 178.88 330.52 177.46 324.8C176.56 321.12 173.24 316.32 168.48 316.16C163.72 316 159.88 321.04 158.74 324.72C157.16 329.74 159.52 334.3 161.1 337.32C162.632 340.269 164.74 342.881 167.3 345ZM164 326.6C164 325.809 164.235 325.036 164.674 324.378C165.114 323.72 165.738 323.207 166.469 322.905C167.2 322.602 168.004 322.523 168.78 322.677C169.556 322.831 170.269 323.212 170.828 323.772C171.388 324.331 171.769 325.044 171.923 325.82C172.077 326.596 171.998 327.4 171.695 328.131C171.393 328.862 170.88 329.486 170.222 329.926C169.564 330.365 168.791 330.6 168 330.6C166.939 330.6 165.922 330.179 165.172 329.428C164.421 328.678 164 327.661 164 326.6ZM304.88 344.44C305.12 336.82 300.88 331.68 297.84 331.68C294.8 331.68 290.56 336.82 290.78 344.44H304.88ZM306.72 340.76L311.58 340.86C311.999 339.102 311.757 337.251 310.9 335.66C309.22 332.72 306.52 331.38 304.7 334.2C306.013 336.136 306.716 338.421 306.72 340.76ZM284 340.86L288.86 340.76C288.866 338.424 289.562 336.142 290.86 334.2C289.02 331.38 286.32 332.74 284.66 335.66C283.807 337.253 283.572 339.105 284 340.86ZM297.84 330.12C298.778 330.204 299.719 330 300.538 329.534C301.356 329.069 302.013 328.364 302.42 327.515C302.827 326.666 302.965 325.713 302.815 324.783C302.665 323.853 302.234 322.992 301.581 322.313C300.928 321.635 300.083 321.173 299.159 320.988C298.236 320.804 297.278 320.906 296.414 321.281C295.55 321.656 294.822 322.285 294.326 323.086C293.83 323.887 293.591 324.82 293.64 325.76C293.672 326.879 294.121 327.946 294.897 328.752C295.674 329.558 296.723 330.046 297.84 330.12ZM287.4 331.4C288.224 331.324 288.989 330.94 289.541 330.325C290.094 329.709 290.394 328.907 290.38 328.08C290.322 327.497 290.095 326.944 289.729 326.488C289.362 326.031 288.87 325.692 288.313 325.51C287.757 325.328 287.159 325.311 286.594 325.463C286.028 325.614 285.519 325.927 285.128 326.363C284.736 326.799 284.48 327.339 284.391 327.917C284.301 328.496 284.381 329.088 284.622 329.622C284.863 330.156 285.254 330.608 285.747 330.924C286.24 331.239 286.814 331.405 287.4 331.4ZM308.28 331.4C309.104 331.324 309.869 330.94 310.421 330.325C310.974 329.709 311.274 328.907 311.26 328.08C311.202 327.497 310.975 326.944 310.609 326.488C310.242 326.031 309.75 325.692 309.193 325.51C308.637 325.328 308.039 325.311 307.474 325.463C306.908 325.614 306.399 325.927 306.008 326.363C305.616 326.799 305.36 327.339 305.271 327.917C305.181 328.496 305.261 329.088 305.502 329.622C305.743 330.156 306.134 330.608 306.627 330.924C307.12 331.239 307.694 331.405 308.28 331.4ZM176.82 131.5C175.414 131.608 174.01 131.257 172.82 130.5C173.351 128.744 174.228 127.112 175.4 125.7C175.487 125.571 175.526 125.415 175.51 125.26C175.493 125.105 175.423 124.961 175.31 124.853C175.197 124.745 175.05 124.681 174.895 124.671C174.739 124.661 174.585 124.707 174.46 124.8C173.76 125.52 170.72 129.92 171.3 131.34C171.88 132.76 176.6 133.54 177.66 132.52C177.795 132.409 177.881 132.248 177.898 132.074C177.914 131.899 177.861 131.725 177.75 131.59C177.639 131.455 177.478 131.369 177.304 131.352C177.129 131.336 176.955 131.389 176.82 131.5ZM188.58 141.62C192.965 141.477 197.182 139.896 200.58 137.12C200.415 138.492 199.962 139.813 199.253 140.999C198.543 142.184 197.591 143.207 196.46 144C196.327 144.08 196.232 144.209 196.194 144.359C196.157 144.509 196.18 144.667 196.26 144.8C196.34 144.933 196.469 145.028 196.619 145.066C196.769 145.103 196.927 145.08 197.06 145C198.822 144.028 200.264 142.567 201.212 140.792C202.16 139.017 202.573 137.005 202.4 135C202.39 134.826 202.33 134.659 202.227 134.518C202.123 134.378 201.982 134.27 201.819 134.209C201.656 134.148 201.478 134.135 201.308 134.172C201.138 134.21 200.982 134.296 200.86 134.42C197.65 137.872 193.243 139.968 188.54 140.28C188.342 140.29 188.156 140.378 188.021 140.523C187.887 140.669 187.814 140.862 187.82 141.06C187.868 141.224 187.968 141.367 188.106 141.468C188.243 141.569 188.409 141.623 188.58 141.62ZM189.52 97.3C189.297 97.3 189.084 97.3885 188.926 97.546C188.768 97.7036 188.68 97.9172 188.68 98.14C188.68 98.3628 188.768 98.5764 188.926 98.734C189.084 98.8915 189.297 98.98 189.52 98.98C191.135 99.0589 192.711 99.4987 194.134 100.267C195.556 101.035 196.789 102.113 197.74 103.42C197.838 103.537 197.976 103.616 198.127 103.64C198.278 103.665 198.433 103.635 198.564 103.555C198.695 103.475 198.792 103.351 198.839 103.205C198.886 103.059 198.879 102.901 198.82 102.76C197.884 101.115 196.532 99.7444 194.9 98.7861C193.268 97.8279 191.413 97.3154 189.52 97.3ZM165.62 98.66C164.289 99.7842 162.579 100.357 160.84 100.26C160.661 100.251 160.484 100.31 160.346 100.424C160.208 100.539 160.117 100.701 160.092 100.879C160.067 101.057 160.109 101.237 160.211 101.386C160.312 101.534 160.465 101.639 160.64 101.68C161.716 101.906 162.83 101.881 163.894 101.607C164.959 101.333 165.947 100.817 166.78 100.1C167.58 99.34 166.52 98 165.62 98.66ZM163.78 119.12C163.78 118.22 163.3 114.54 163.32 113.68C163.32 113.494 163.246 113.316 163.115 113.185C162.984 113.054 162.806 112.98 162.62 112.98C162.438 112.975 162.26 113.04 162.126 113.164C161.991 113.287 161.91 113.458 161.9 113.64C161.791 115.538 161.791 117.442 161.9 119.34C161.929 119.589 162.056 119.817 162.253 119.972C162.351 120.05 162.462 120.107 162.582 120.141C162.701 120.174 162.827 120.184 162.95 120.17C163.073 120.156 163.193 120.117 163.301 120.056C163.41 119.996 163.505 119.914 163.582 119.817C163.659 119.719 163.717 119.608 163.751 119.488C163.784 119.369 163.794 119.243 163.78 119.12ZM192 118.64C192 117.98 191.6 115.34 191.62 114.64C191.62 114.454 191.546 114.276 191.415 114.145C191.284 114.014 191.106 113.94 190.92 113.94C190.734 113.94 190.556 114.014 190.425 114.145C190.294 114.276 190.22 114.454 190.22 114.64C190.22 115.36 190.02 118.14 190.1 118.86C190.104 118.993 190.135 119.124 190.192 119.244C190.249 119.365 190.33 119.472 190.431 119.559C190.532 119.646 190.649 119.711 190.777 119.75C190.904 119.79 191.038 119.802 191.17 119.787C191.302 119.771 191.43 119.729 191.545 119.662C191.66 119.594 191.759 119.504 191.837 119.396C191.915 119.288 191.97 119.165 191.998 119.035C192.026 118.905 192.027 118.77 192 118.64Z" fill="#155E75"/>
<path d="M98.6 206C98.5786 206.065 98.5786 206.135 98.6 206.2C107.341 225.893 121.587 242.64 139.622 254.427C157.658 266.214 178.715 272.539 200.26 272.64C262.74 272.64 313.94 220.06 311.32 155.7C310.377 132.609 302.025 110.435 287.5 92.46C276.187 78.5552 261.691 67.5792 245.24 60.46C245.451 59.7388 245.612 59.0037 245.72 58.26C246.84 50.96 243.72 46.08 238.18 41.14C235.396 38.7407 232.471 36.51 229.42 34.46C226.392 32.1911 222.892 30.6326 219.18 29.9C217.204 29.5013 215.162 29.5743 213.219 30.1129C211.277 30.6516 209.489 31.6407 208 33C207.44 33.58 206.96 34.5 206.36 34.86C205.485 35.1248 204.562 35.1864 203.66 35.04C197.542 35.0391 191.489 36.2895 185.873 38.7143C180.256 41.139 175.195 44.687 171 49.14C168.487 49.5627 166.114 50.5901 164.087 52.1336C162.059 53.677 160.437 55.6903 159.36 58C99.56 82.82 74.12 148 98.6 206ZM166.14 222.76C163.808 215.073 162.794 207.046 163.14 199.02C163.44 192.34 163.92 181.18 171.14 176.5C173.392 174.937 175.848 173.692 178.44 172.8C176.14 185.54 180.6 198.36 186 210C182.58 211.22 169.28 220.78 166.14 222.8V222.76ZM182.14 172.76C181.96 170.76 181.04 164.76 180.9 163.82C180.873 163.403 180.739 163.001 180.511 162.65C180.283 162.3 179.97 162.014 179.6 161.82C178.94 161.48 176 160.48 175.22 160.08C166 155.56 159.12 144.8 160 129.1C162.433 129.454 164.911 129.339 167.3 128.76C170.44 127.82 172.4 124.86 173.1 119.98C173.552 119.566 174.088 119.254 174.671 119.064C175.254 118.875 175.871 118.812 176.48 118.88C177.722 118.986 178.925 119.369 180 120C180.228 121.588 180.824 123.1 181.741 124.416C182.657 125.733 183.87 126.816 185.28 127.58C188.447 129.11 192.08 129.365 195.43 128.293C198.78 127.222 201.59 124.904 203.28 121.82C204.135 120.112 204.671 118.261 204.86 116.36C208.264 116.565 211.679 116.276 215 115.5C215 116.52 215 118.36 215.66 118.72C217.86 119.82 221.66 110.98 227 110.98C228.673 111.087 230.251 111.797 231.44 112.98C232.361 113.661 233.111 114.547 233.632 115.567C234.153 116.587 234.429 117.715 234.44 118.86C234.314 119.869 233.99 120.842 233.485 121.725C232.981 122.607 232.306 123.38 231.5 124C229.111 126.247 225.979 127.536 222.7 127.62C222.631 127.628 222.566 127.652 222.509 127.692C222.452 127.731 222.406 127.783 222.375 127.845C222.343 127.906 222.327 127.974 222.328 128.043C222.329 128.112 222.347 128.18 222.38 128.24C225.653 133.667 227.954 139.623 229.18 145.84C228.1 157.62 227.64 162.64 227.42 165.08C225.58 187.08 218 205.36 205.8 223.78C203.066 227.646 200.772 231.805 198.96 236.18C192.22 215 175.54 195.16 179.76 172.66C180.11 172.518 180.471 172.404 180.84 172.32C180.84 172.627 180.9 172.887 181.02 173.1C181.034 173.174 181.063 173.244 181.105 173.306C181.146 173.368 181.2 173.422 181.262 173.464C181.324 173.506 181.394 173.535 181.467 173.549C181.541 173.564 181.616 173.564 181.69 173.55C181.764 173.536 181.833 173.507 181.896 173.465C181.958 173.424 182.012 173.37 182.054 173.308C182.096 173.246 182.125 173.176 182.139 173.103C182.154 173.029 182.154 172.954 182.14 172.88V172.76ZM195.5 89.12C194.454 88.2717 193.279 87.5964 192.02 87.12C200.02 86.38 206.2 84.1 211.66 77.68C212.26 78 215.66 79.68 216.18 80.02C221.98 89.04 218.8 92.72 216.68 103.82C216.04 107.16 215.4 110.64 215.04 113.7C211.726 114.541 208.319 114.958 204.9 114.94C205.06 113.36 205.14 111.66 205.36 110.02C205.771 109.854 206.116 109.557 206.339 109.175C206.563 108.792 206.654 108.346 206.596 107.906C206.539 107.467 206.338 107.059 206.023 106.746C205.709 106.434 205.3 106.235 204.86 106.18L180.86 105.6C180.497 105.622 180.147 105.743 179.848 105.949C179.548 106.155 179.311 106.439 179.16 106.77C179.01 107.102 178.953 107.467 178.995 107.828C179.038 108.19 179.177 108.532 179.4 108.82C179.261 111.936 179.361 115.059 179.7 118.16C178.695 117.657 177.591 117.382 176.468 117.354C175.344 117.326 174.228 117.547 173.2 118C173.369 115.23 173.261 112.449 172.88 109.7C173.153 109.448 173.356 109.13 173.47 108.776C173.583 108.422 173.604 108.045 173.53 107.682C173.455 107.318 173.288 106.979 173.045 106.699C172.801 106.418 172.49 106.205 172.14 106.08C171.94 106.08 172.26 106.08 159.44 105.76C159.6 101.76 159.66 90.66 161.44 85.24C171.64 92.86 184.06 95.24 195.44 89.76C195.515 89.6975 195.563 89.6087 195.574 89.512C195.585 89.4152 195.559 89.3178 195.5 89.24V89.12ZM204.1 110.18C203.58 113.28 203.8 116.54 202.66 119.44C201.474 122.404 199.19 124.797 196.284 126.119C193.378 127.442 190.074 127.592 187.06 126.54C185.584 126.043 184.281 125.136 183.303 123.924C182.325 122.713 181.714 121.247 181.54 119.7C181.046 116.391 180.839 113.045 180.92 109.7C184.16 110 201.06 110.24 204.1 110.3V110.18ZM171.52 110.18C172.06 115.22 172.34 124.18 167.86 126.66C166.529 127.238 165.091 127.531 163.64 127.52C162.371 127.63 161.093 127.57 159.84 127.34C158.547 127.126 157.337 126.559 156.346 125.701C155.354 124.844 154.619 123.729 154.22 122.48C153.273 118.289 152.883 113.992 153.06 109.7L171.52 110.18ZM199.28 259.56C194.54 252 178 226.4 173.64 220C177.516 216.575 181.819 213.664 186.44 211.34C187.78 213.9 196.44 231.68 198.22 238.8C198.266 238.958 198.362 239.097 198.493 239.196C198.625 239.295 198.785 239.349 198.95 239.349C199.115 239.349 199.275 239.295 199.407 239.196C199.538 239.097 199.634 238.958 199.68 238.8C202.48 227.96 209.38 223.06 217.46 206.22C222.01 208.764 226.15 211.98 229.74 215.76C226 222.34 206 251.74 199.28 259.66V259.56ZM236 218.72C224.4 207.9 219.66 205.42 218.2 204.86C223.823 193.095 227.414 180.464 228.82 167.5C234.62 172 240.62 176.42 245.98 181.32C244.82 186.78 238.46 211.16 236 218.72ZM244.9 61.7C295.64 84.7 322.9 139.4 303.64 197.5C293.78 193.24 255.84 181.66 247.16 180.32C244.72 178 233.16 169.02 229.02 165.88C229.02 164.92 228.86 167.72 230.46 148.3C230.46 148.08 234.92 125.9 236.8 121.06C237.808 118.5 239.032 116.031 240.46 113.68C242.798 109.452 243.509 104.516 242.46 99.8C242.069 98.3029 241.39 96.8966 240.46 95.66C242.49 93.671 243.883 91.1229 244.46 88.34C245 84.12 242.9 80.02 240.86 76.48C242.362 74.1157 243.217 71.3985 243.34 68.6C243.285 67.5386 242.984 66.5046 242.46 65.58C243.507 64.4642 244.311 63.1429 244.82 61.7H244.9ZM162.34 56.52C168.34 48.02 180.34 50.16 190.48 52.2C202.732 54.6982 214.651 58.6111 226 63.86C226.127 63.9263 226.276 63.9393 226.413 63.8962C226.549 63.8531 226.664 63.7573 226.73 63.63C226.796 63.5027 226.809 63.3543 226.766 63.2174C226.723 63.0805 226.627 62.9663 226.5 62.9C215.527 57.5043 203.934 53.4742 191.98 50.9C186.28 49.68 179.46 48.26 173.54 48.9C180.358 42.4863 189.033 38.3974 198.32 37.22C204.66 36.42 206.48 37.72 208.2 35.58C209.054 34.3974 210.161 33.4203 211.44 32.72C214.74 31 219.56 30.72 225.32 34C228.429 35.7804 231.403 37.7858 234.22 40C237.043 42.0427 239.544 44.4965 241.64 47.28C243.608 49.8791 244.554 53.1098 244.3 56.36C244.205 59.2145 243.196 61.963 241.42 64.2C240.638 63.2968 239.781 62.4605 238.86 61.7C234.1 57.7 218.1 46.42 214.86 44.44C214.725 44.3551 214.561 44.3275 214.406 44.3631C214.25 44.3987 214.115 44.4947 214.03 44.63C213.945 44.7653 213.917 44.9287 213.953 45.0843C213.989 45.24 214.085 45.3751 214.22 45.46C218.76 48.3 232.76 58.78 236.22 61.72C238.46 63.58 240.62 65.26 241.26 67.24C242.22 70.3 240.46 73.24 239.26 76.08C239.2 76.2133 239.183 76.3622 239.211 76.5057C239.24 76.6492 239.313 76.7801 239.42 76.88C241.22 80.12 243.3 84.66 242.72 88.34C242.161 90.6195 240.977 92.6976 239.3 94.34C231.1 84.58 211.56 73.64 198.56 68.74C183.32 62.92 164.08 62.9 158.84 65.08C159.372 62.0066 160.566 59.0857 162.34 56.52ZM158.34 60.34C157.707 62.2107 157.265 64.1405 157.02 66.1C155.48 66.74 154.1 69.34 153.02 73.52C151.72 79.08 150.58 83.88 153.36 88.58C154.616 90.6309 156.37 92.3304 158.46 93.52C158.22 95.52 157.6 102.82 157.66 105.86L152.4 105.74H152.26C151.869 105.817 151.511 106.009 151.23 106.292C150.949 106.574 150.759 106.933 150.684 107.324C150.609 107.715 150.652 108.12 150.808 108.486C150.964 108.852 151.226 109.163 151.56 109.38C151.472 113.68 151.726 117.98 152.32 122.24C152.624 123.773 153.345 125.193 154.403 126.344C155.462 127.494 156.817 128.33 158.32 128.76C157.763 135.97 159.225 143.193 162.54 149.62C165.643 155.625 170.858 160.269 177.18 162.66C179.18 163.32 179.18 163.24 179.38 164.32C179.38 164.32 180.22 169.36 180.5 170.88C174.595 171.857 169.226 174.889 165.34 179.44C142.093 183.861 119.869 192.562 99.8 205.1C94.0847 191.754 91.0681 177.408 90.9241 162.89C90.7801 148.372 93.5117 133.969 98.9611 120.511C104.411 107.054 112.47 94.8087 122.675 84.4815C132.88 74.1542 145.029 65.9493 158.42 60.34H158.34ZM96 27.54C97.18 27.42 97.04 25.64 96 25.78C91.32 25.92 73.38 26.52 68.54 26.48C68.4071 26.505 68.2872 26.5756 68.2008 26.6797C68.1145 26.7838 68.0673 26.9148 68.0673 27.05C68.0673 27.1852 68.1145 27.3162 68.2008 27.4203C68.2872 27.5243 68.4071 27.595 68.54 27.62C73.02 27.84 91.44 28 96 27.54ZM94 32.26C92.18 32.26 73 33.76 69.16 33.82C69.0062 33.82 68.8587 33.8811 68.7499 33.9899C68.6411 34.0986 68.58 34.2462 68.58 34.4C68.58 34.5538 68.6411 34.7013 68.7499 34.8101C68.8587 34.9189 69.0062 34.98 69.16 34.98C72.28 34.98 91.82 34.46 94.2 34C94.4135 33.9538 94.6021 33.8299 94.7293 33.6524C94.8565 33.4749 94.9132 33.2564 94.8882 33.0394C94.8633 32.8224 94.7586 32.6225 94.5944 32.4784C94.4302 32.3344 94.2184 32.2565 94 32.26ZM97.18 40.16C97.18 40.16 72.64 41.08 70.3 41.1C70.1472 41.1269 70.0087 41.2068 69.9089 41.3257C69.8092 41.4446 69.7545 41.5948 69.7545 41.75C69.7545 41.9052 69.8092 42.0554 69.9089 42.1743C70.0087 42.2932 70.1472 42.3731 70.3 42.4C79.3 42.4 88.3 42.74 97.24 42.02C97.4628 41.9807 97.6639 41.8624 97.8064 41.6868C97.949 41.5112 98.0235 41.2901 98.0162 41.064C98.0089 40.8379 97.9203 40.6221 97.7667 40.456C97.6131 40.29 97.4048 40.1849 97.18 40.16ZM232 338.44L230.52 337.68C230.468 337.65 230.41 337.634 230.35 337.634C230.29 337.634 230.232 337.65 230.18 337.68C228.242 339.325 226.686 341.373 225.62 343.68C225.59 343.752 225.588 343.833 225.614 343.907C225.64 343.98 225.692 344.042 225.76 344.08C227.188 344.822 228.771 345.219 230.38 345.24C235.7 345.24 239.06 340.68 242.06 336.44C244.66 332.72 247.92 328.1 246.3 323.62C245.745 322.125 244.782 320.815 243.52 319.84C243.468 319.792 243.4 319.766 243.33 319.766C243.26 319.766 243.192 319.792 243.14 319.84C241.075 321.409 239.438 323.472 238.38 325.84C238.347 325.887 238.33 325.943 238.33 326C238.33 326.057 238.347 326.113 238.38 326.16L240 327.7C238.13 331.81 235.402 335.471 232 338.44ZM227.02 335.8C225.657 337.343 224.432 339.003 223.36 340.76C222.84 341.9 224.36 342.46 224.76 341.76C225.878 340.035 227.107 338.385 228.44 336.82C228.86 336.38 228 335.14 227.02 335.8ZM237.1 324.38C237.226 324.384 237.35 324.359 237.465 324.307C237.579 324.255 237.68 324.177 237.76 324.08C238.885 322.36 240.114 320.71 241.44 319.14C241.88 318.68 241.02 317.46 240 318.14C238.65 319.677 237.439 321.33 236.38 323.08C236.303 323.209 236.261 323.356 236.259 323.507C236.256 323.657 236.294 323.805 236.366 323.937C236.439 324.068 236.545 324.179 236.674 324.256C236.803 324.334 236.95 324.377 237.1 324.38ZM296.76 298.78C296.887 298.782 297.013 298.754 297.128 298.698C297.242 298.642 297.342 298.561 297.42 298.46C297.498 298.359 297.551 298.242 297.575 298.117C297.599 297.992 297.594 297.863 297.56 297.74L298.02 283.74C298.02 282.66 298.12 281.32 296.88 280.62C295.64 279.92 99.92 279.46 100.14 279.46C100.071 279.463 100.004 279.483 99.9451 279.518C99.8858 279.553 99.836 279.601 99.8 279.66C99.185 284.97 98.9377 290.316 99.06 295.66C99.294 296.144 99.6703 296.545 100.139 296.81C100.607 297.074 101.145 297.19 101.68 297.14C104.42 297.14 296.76 298.78 296.76 298.78ZM296.36 283.78C296.36 284.24 296.36 283.96 296 297.08C286.64 296.8 102.48 295.36 101.1 295.28C100.48 295.06 100.48 294.46 100.52 293.52L100.9 281.14C110.72 281.42 295.1 281.9 295.86 281.96C296.62 282.02 296.42 282.84 296.36 283.78ZM117.48 357.12C117.713 357.12 117.937 357.027 118.102 356.862C118.267 356.697 118.36 356.473 118.36 356.24C118.36 356.007 118.267 355.783 118.102 355.618C117.937 355.453 117.713 355.36 117.48 355.36C113 355.62 94.86 356.12 90.02 356.06C89.8871 356.085 89.7671 356.156 89.6808 356.26C89.5945 356.364 89.5473 356.495 89.5473 356.63C89.5473 356.765 89.5945 356.896 89.6808 357C89.7671 357.104 89.8871 357.175 90.02 357.2C94.48 357.42 112.86 357.56 117.48 357.12ZM115.38 361.84C113.58 361.84 94.4 363.34 90.54 363.4C90.3862 363.4 90.2387 363.461 90.1299 363.57C90.0211 363.679 89.96 363.826 89.96 363.98C89.96 364.134 90.0211 364.281 90.1299 364.39C90.2387 364.499 90.3862 364.56 90.54 364.56C94.16 364.56 113.28 364.02 115.58 363.58C115.793 363.534 115.982 363.41 116.109 363.232C116.237 363.055 116.293 362.836 116.268 362.619C116.243 362.402 116.139 362.203 115.974 362.058C115.81 361.914 115.598 361.837 115.38 361.84ZM118.62 369.76C118.62 369.76 94.12 370.66 91.72 370.68C91.5672 370.707 91.4287 370.787 91.3289 370.906C91.2292 371.025 91.1745 371.175 91.1745 371.33C91.1745 371.485 91.2292 371.635 91.3289 371.754C91.4287 371.873 91.5672 371.953 91.72 371.98C100.68 371.98 109.72 372.32 118.64 371.6C118.761 371.599 118.88 371.574 118.991 371.526C119.102 371.479 119.203 371.41 119.288 371.323C119.372 371.237 119.439 371.135 119.484 371.023C119.529 370.911 119.551 370.791 119.55 370.67C119.549 370.549 119.524 370.43 119.476 370.319C119.429 370.208 119.36 370.107 119.273 370.022C119.187 369.938 119.085 369.871 118.973 369.826C118.861 369.781 118.741 369.759 118.62 369.76ZM181.18 357.12C181.413 357.12 181.637 357.027 181.802 356.862C181.967 356.697 182.06 356.473 182.06 356.24C182.06 356.007 181.967 355.783 181.802 355.618C181.637 355.453 181.413 355.36 181.18 355.36C176.66 355.6 158.54 356.12 153.72 356.06C153.587 356.085 153.467 356.156 153.381 356.26C153.294 356.364 153.247 356.495 153.247 356.63C153.247 356.765 153.294 356.896 153.381 357C153.467 357.104 153.587 357.175 153.72 357.2C158.2 357.42 176.54 357.56 181.18 357.12ZM179.08 361.84C177.28 361.84 158.1 363.34 154.24 363.4C154.086 363.4 153.939 363.461 153.83 363.57C153.721 363.679 153.66 363.826 153.66 363.98C153.66 364.134 153.721 364.281 153.83 364.39C153.939 364.499 154.086 364.56 154.24 364.56C157.84 364.56 176.96 364.02 179.26 363.58C179.472 363.534 179.659 363.412 179.786 363.236C179.913 363.061 179.971 362.845 179.949 362.629C179.927 362.414 179.826 362.214 179.665 362.069C179.505 361.923 179.297 361.842 179.08 361.84ZM182.34 369.76C182.34 369.76 157.82 370.66 155.44 370.68C155.287 370.707 155.149 370.787 155.049 370.906C154.949 371.025 154.894 371.175 154.894 371.33C154.894 371.485 154.949 371.635 155.049 371.754C155.149 371.873 155.287 371.953 155.44 371.98C164.4 371.98 173.44 372.32 182.36 371.6C182.604 371.597 182.837 371.498 183.008 371.323C183.178 371.149 183.273 370.914 183.27 370.67C183.267 370.426 183.168 370.193 182.993 370.022C182.819 369.852 182.584 369.757 182.34 369.76ZM246.84 357.12C247.073 357.12 247.297 357.027 247.462 356.862C247.627 356.697 247.72 356.473 247.72 356.24C247.72 356.007 247.627 355.783 247.462 355.618C247.297 355.453 247.073 355.36 246.84 355.36C242.32 355.62 224.22 356.12 219.36 356.06C219.227 356.085 219.107 356.156 219.021 356.26C218.934 356.364 218.887 356.495 218.887 356.63C218.887 356.765 218.934 356.896 219.021 357C219.107 357.104 219.227 357.175 219.36 357.2C223.86 357.42 242.2 357.56 246.84 357.12ZM244.74 361.84C242.96 361.84 223.76 363.34 219.92 363.4C219.766 363.4 219.619 363.461 219.51 363.57C219.401 363.679 219.34 363.826 219.34 363.98C219.34 364.134 219.401 364.281 219.51 364.39C219.619 364.499 219.766 364.56 219.92 364.56C223.52 364.56 242.64 364.02 244.96 363.58C245.176 363.534 245.367 363.409 245.494 363.229C245.622 363.049 245.678 362.828 245.65 362.609C245.622 362.39 245.514 362.189 245.345 362.047C245.176 361.905 244.96 361.831 244.74 361.84ZM248 369.76C248 369.76 223.48 370.66 221.1 370.68C220.947 370.707 220.809 370.787 220.709 370.906C220.609 371.025 220.554 371.175 220.554 371.33C220.554 371.485 220.609 371.635 220.709 371.754C220.809 371.873 220.947 371.953 221.1 371.98C230.06 371.98 239.1 372.32 248.02 371.6C248.264 371.597 248.497 371.498 248.668 371.323C248.838 371.149 248.933 370.914 248.93 370.67C248.927 370.426 248.828 370.193 248.653 370.022C248.479 369.852 248.244 369.757 248 369.76ZM310.7 357.12C310.933 357.12 311.157 357.027 311.322 356.862C311.487 356.697 311.58 356.473 311.58 356.24C311.58 356.007 311.487 355.783 311.322 355.618C311.157 355.453 310.933 355.36 310.7 355.36C306.22 355.6 288.08 356.12 283.22 356.06C283.087 356.085 282.967 356.156 282.881 356.26C282.794 356.364 282.747 356.495 282.747 356.63C282.747 356.765 282.794 356.896 282.881 357C282.967 357.104 283.087 357.175 283.22 357.2C287.72 357.42 306 357.56 310.7 357.12ZM308.6 361.84C306.82 361.84 287.62 363.34 283.78 363.4C283.626 363.4 283.479 363.461 283.37 363.57C283.261 363.679 283.2 363.826 283.2 363.98C283.2 364.134 283.261 364.281 283.37 364.39C283.479 364.499 283.626 364.56 283.78 364.56C287.38 364.56 306.5 364.02 308.82 363.58C309.036 363.534 309.227 363.409 309.354 363.229C309.482 363.049 309.538 362.828 309.51 362.609C309.482 362.39 309.373 362.189 309.205 362.047C309.036 361.905 308.82 361.831 308.6 361.84ZM311.86 369.76C311.86 369.76 287.34 370.66 284.96 370.68C284.807 370.707 284.669 370.787 284.569 370.906C284.469 371.025 284.414 371.175 284.414 371.33C284.414 371.485 284.469 371.635 284.569 371.754C284.669 371.873 284.807 371.953 284.96 371.98C293.9 371.98 302.96 372.32 311.88 371.6C312.124 371.597 312.357 371.498 312.528 371.323C312.698 371.149 312.793 370.914 312.79 370.67C312.787 370.426 312.688 370.193 312.513 370.022C312.339 369.852 312.104 369.757 311.86 369.76ZM121.62 346.1L116.98 346C116.98 343.64 116.82 337.56 116.74 335.68C117.343 335.176 117.732 334.462 117.828 333.683C117.925 332.903 117.722 332.116 117.26 331.48C117.08 331.22 117.26 331.28 111.6 331.48V327.48C111.952 326.981 112.188 326.409 112.292 325.808C112.396 325.206 112.364 324.588 112.2 324C112.177 323.912 112.125 323.834 112.053 323.78C111.98 323.725 111.891 323.697 111.8 323.7L104.68 323.92C104.56 322.4 104.04 316.94 103.84 316.58C103.704 316.32 103.476 316.121 103.2 316.02C105.68 312.44 101.78 311.18 102.54 309.34C102.86 308.56 101.7 308.02 101.24 308.74C100.115 310.246 99.2501 311.929 98.68 313.72C98.6975 314.251 98.8453 314.769 99.1104 315.23C99.3755 315.69 99.7496 316.078 100.2 316.36C99.9097 316.476 99.6649 316.683 99.5026 316.95C99.3402 317.217 99.2691 317.529 99.3 317.84V324.06L93.6 324.24C93.5178 324.241 93.4382 324.27 93.3733 324.32C93.3084 324.371 93.2616 324.441 93.24 324.52C93.0199 325.162 92.9669 325.85 93.0858 326.518C93.2048 327.186 93.4919 327.813 93.92 328.34C93.92 329.48 94.06 331.04 94.18 332.16C88.42 332.4 88.64 332.32 88.46 332.52C87.02 334.24 86.1 337.22 87.8 338.52V345.78H84.44C84.2756 345.78 84.1179 345.845 84.0016 345.962C83.8853 346.078 83.82 346.236 83.82 346.4C83.82 346.564 83.8853 346.722 84.0016 346.838C84.1179 346.955 84.2756 347.02 84.44 347.02C84.66 347.02 121.36 347.46 121.7 347.42C121.875 347.409 122.039 347.33 122.155 347.198C122.271 347.067 122.331 346.895 122.32 346.72C122.309 346.545 122.23 346.381 122.098 346.265C121.967 346.149 121.795 346.089 121.62 346.1ZM103.24 324H100.74V317.68C101.388 317.485 102.063 317.39 102.74 317.4C102.78 318.24 103.14 322.7 103.24 324ZM100.16 313.6C100.518 312.801 100.939 312.032 101.42 311.3C102.08 312.58 103.04 313.3 102.48 314.56C102.239 314.997 101.951 315.406 101.62 315.78C100.74 315.16 100 314.44 100.16 313.56V313.6ZM99.72 327.7C99.9892 328.268 100.414 328.748 100.945 329.084C101.476 329.42 102.092 329.598 102.72 329.598C103.348 329.598 103.964 329.42 104.495 329.084C105.026 328.748 105.451 328.268 105.72 327.7C106.261 328.217 106.928 328.582 107.655 328.758C108.382 328.933 109.143 328.913 109.86 328.7V331.64L95.58 332.2C95.58 331.22 95.48 330.2 95.4 329.28C96.1994 329.43 97.0243 329.358 97.7858 329.072C98.5472 328.787 99.216 328.298 99.72 327.66V327.7ZM89.3 345.7V338.96C90.1966 339.027 91.0972 338.9 91.9397 338.585C92.7821 338.271 93.5465 337.778 94.18 337.14C94.9138 337.798 95.8646 338.162 96.85 338.162C97.8355 338.162 98.7862 337.798 99.52 337.14C101.84 339.68 105.32 338.5 107.24 335.68C107.619 336.218 108.115 336.664 108.691 336.984C109.266 337.304 109.906 337.49 110.564 337.528C111.221 337.567 111.878 337.456 112.487 337.206C113.096 336.955 113.64 336.57 114.08 336.08C114.504 336.193 114.944 336.227 115.38 336.18C115.38 338.3 115.38 343.66 115.52 345.9C109.38 345.86 93.32 345.74 89.3 345.74V345.7Z" fill="#155E75"/>
<path d="M359.88 120.48C356.72 118.24 358.96 118.48 354.36 103.34C352.8 98.2 351.06 92.02 346.36 90.04C346.36 75.12 346.36 12.96 346.46 10.84C346.542 10.7059 346.587 10.5523 346.59 10.395C346.592 10.2377 346.553 10.0826 346.475 9.94581C346.398 9.809 346.285 9.69549 346.148 9.61708C346.012 9.53868 345.857 9.49825 345.7 9.50001C307.9 9.50001 72.9199 10.56 52.0799 10.8C51.954 10.8026 51.8304 10.8349 51.7193 10.8943C51.6081 10.9538 51.5126 11.0386 51.4405 11.1419C51.3684 11.2452 51.3217 11.3641 51.3042 11.4889C51.2867 11.6137 51.299 11.7409 51.3399 11.86C50.8399 38.16 50.1199 181.76 49.9399 236.52C39.3274 245.842 30.9938 257.473 25.58 270.52C15.82 294.38 15.24 312.52 23.88 324.18C29.5999 331.98 41.02 340.74 50.0799 336.72C49.7999 374.84 49.7199 385.98 49.9399 389.2C50.0399 390.7 50.2199 390.48 50.4399 390.48C50.6599 390.48 332.58 389.96 345.08 389.82C345.236 389.82 345.39 389.777 345.524 389.696C345.658 389.615 345.767 389.499 345.84 389.36C345.94 389.16 346.38 299.98 346.72 276.32C349.16 276.253 351.551 275.625 353.709 274.483C355.866 273.342 357.731 271.719 359.16 269.74C364.057 263.611 368.095 256.842 371.16 249.62C375.68 237.72 378.94 229.14 380.84 215.84C385.04 186.54 378.74 154.54 366.08 128C363.82 123.22 364.14 123.5 359.88 120.48ZM43.9999 323.32C40.2399 321.58 36.8199 313.74 38.1999 306.98C39.2879 302.539 41.752 298.556 45.2399 295.6C46.8331 294.021 48.582 292.607 50.4599 291.38V298.28C48.9627 299.308 47.6163 300.54 46.4599 301.94C46.37 302.082 46.3358 302.252 46.3639 302.418C46.3919 302.583 46.4803 302.733 46.612 302.837C46.7436 302.941 46.9092 302.993 47.0769 302.983C47.2445 302.972 47.4024 302.9 47.5199 302.78C49.4853 300.841 51.747 299.228 54.2199 298C55.9599 297.22 56.3199 297.58 55.8999 299.2C55.5383 301.149 54.581 302.938 53.1599 304.32C51.7413 305.461 50.1735 306.403 48.4999 307.12C47.5943 307.509 46.7356 307.999 45.9399 308.58C45.8343 308.686 45.7704 308.826 45.7601 308.975C45.7498 309.125 45.7937 309.273 45.8838 309.392C45.9739 309.511 46.1041 309.594 46.2504 309.625C46.3967 309.656 46.5493 309.633 46.6799 309.56C48.2799 308.5 53.2999 306.94 56.0599 305C58.0599 303.62 58.2399 304.66 57.5599 306.72C56.1599 310.86 51.2999 313 48.0799 315.6C47.9681 315.713 47.8991 315.861 47.885 316.019C47.871 316.177 47.9127 316.335 48.0029 316.466C48.0932 316.596 48.2262 316.691 48.3791 316.734C48.532 316.777 48.695 316.765 48.8399 316.7C49.7399 316.2 50.6399 315.58 51.9199 314.7C53.1999 313.82 56.8199 312 58.1399 312.7C58.289 312.769 58.4154 312.879 58.504 313.017C58.5926 313.155 58.6397 313.316 58.6399 313.48C58.8399 314.92 57.6399 316.32 56.4199 317.88C50.8199 325.04 46.1999 324.38 43.9999 323.32ZM344.3 388C326.9 388.1 65.0399 388.76 51.4199 388.92C51.5799 383.22 51.4199 347.18 51.5199 324.42C54.2382 322.354 56.7439 320.023 58.9999 317.46C59.5599 316.68 61.2999 313.98 59.9399 311.86C59.6363 311.405 59.2036 311.052 58.6975 310.845C58.1914 310.639 57.635 310.588 57.0999 310.7C58.4797 309.265 59.3508 307.417 59.5799 305.44C59.5799 304.82 59.7599 303.44 58.5799 302.86C58.1668 302.725 57.728 302.687 57.2978 302.749C56.8675 302.812 56.4576 302.973 56.0999 303.22C56.2799 302.94 56.4199 302.66 56.5799 302.36C57.2999 300.94 58.2999 297.68 57.4999 296.48C56.3999 294.86 53.5999 296.2 51.9199 297.2C52.0399 110.4 52.9999 43.54 52.8999 12.36C72.2399 12.36 332.72 11.3 344.9 11.22C344.74 22.32 344.48 98.7 344.48 98.7C341.159 99.2461 337.978 100.442 335.12 102.22C334.339 102.597 333.685 103.195 333.24 103.94C333.089 104.201 332.995 104.492 332.965 104.792C332.935 105.092 332.969 105.395 333.066 105.681C333.162 105.967 333.319 106.229 333.525 106.45C333.731 106.67 333.981 106.844 334.26 106.96C333.44 107.453 332.753 108.14 332.26 108.96C332.06 109.737 332.154 110.56 332.523 111.272C332.891 111.984 333.51 112.535 334.26 112.82C332.14 114.72 332.56 118.06 336.84 118.68C339.445 119.046 342.096 118.93 344.66 118.34C345.84 136 344.1 376.7 344.3 388ZM346.7 122.62C346.58 121.16 346.44 119.62 346.26 117.98C347.542 117.591 348.787 117.089 349.98 116.48C350.82 116.06 350.14 114.8 349.3 115.22C346.118 116.699 342.625 117.385 339.12 117.22C337.82 117.22 335.64 117.22 335.12 115.96C334.6 114.7 335.86 113.76 336.72 113.52C340.494 114.085 344.349 113.381 347.68 111.52C347.839 111.435 347.958 111.291 348.01 111.118C348.063 110.945 348.045 110.759 347.96 110.6C347.875 110.441 347.73 110.322 347.558 110.269C347.385 110.217 347.199 110.235 347.04 110.32C344.032 111.765 340.666 112.293 337.36 111.84C335 111.52 333.9 110.86 333.94 109.84C333.94 109.36 335.94 107.84 336.74 107.5C340.282 108.003 343.878 108.003 347.42 107.5C348.32 107.38 348.2 106 347.3 106.12C344.62 106.46 336.02 106.24 335.2 105.52C335.113 105.464 335.042 105.387 334.993 105.296C334.943 105.205 334.918 105.103 334.918 105C334.918 104.897 334.943 104.795 334.993 104.704C335.042 104.613 335.113 104.536 335.2 104.48C337.32 102.28 344.88 100.06 346.9 99.74C347.059 99.7215 347.204 99.6404 347.304 99.5148C347.403 99.3891 347.448 99.2292 347.43 99.07C347.411 98.9109 347.33 98.7657 347.205 98.6663C347.079 98.5669 346.919 98.5215 346.76 98.54H346.42V91.72C350.02 93.86 351.42 98.76 352.54 102.72C357.58 120.3 354.7 119.14 359.84 122.6C360.66 123.119 361.424 123.723 362.12 124.4C357.02 127.56 351.24 126.4 346.7 122.68V122.62Z" fill="#155E75"/>
<path d="M214.9 219.18C214.437 219.18 213.985 219.317 213.6 219.574C213.215 219.831 212.915 220.197 212.738 220.625C212.561 221.052 212.514 221.523 212.605 221.977C212.695 222.43 212.918 222.847 213.245 223.175C213.572 223.502 213.989 223.725 214.443 223.815C214.897 223.905 215.368 223.859 215.795 223.682C216.223 223.505 216.588 223.205 216.845 222.82C217.103 222.435 217.24 221.983 217.24 221.52C217.24 220.899 216.993 220.304 216.554 219.865C216.116 219.427 215.52 219.18 214.9 219.18ZM208 230.62C207.486 230.62 206.983 230.772 206.555 231.058C206.128 231.344 205.795 231.75 205.598 232.225C205.401 232.7 205.349 233.223 205.45 233.727C205.55 234.232 205.798 234.695 206.161 235.058C206.525 235.422 206.988 235.67 207.493 235.77C207.997 235.87 208.52 235.819 208.995 235.622C209.47 235.425 209.876 235.092 210.162 234.664C210.447 234.237 210.6 233.734 210.6 233.22C210.6 232.53 210.326 231.869 209.838 231.382C209.351 230.894 208.689 230.62 208 230.62ZM201.8 240.66C201.404 240.66 201.018 240.777 200.689 240.997C200.36 241.217 200.103 241.529 199.952 241.895C199.801 242.26 199.761 242.662 199.838 243.05C199.915 243.438 200.106 243.795 200.386 244.074C200.665 244.354 201.022 244.544 201.41 244.622C201.798 244.699 202.2 244.659 202.565 244.508C202.931 244.356 203.243 244.1 203.463 243.771C203.683 243.442 203.8 243.056 203.8 242.66C203.8 242.13 203.589 241.621 203.214 241.246C202.839 240.871 202.33 240.66 201.8 240.66Z" fill="#155E75"/>
</svg>

